<?xml version="1.0" encoding="UTF-8"?>
<svg width="1200pt" height="1200pt" version="1.1" viewBox="0 0 1200 1200" xmlns="http://www.w3.org/2000/svg">
 <path d="m631.8 536.64c-5.3203 12.102-5.4922 25.848-0.48047 38.082 5.0156 12.23 14.785 21.902 27.07 26.789s26.027 4.5742 38.074-0.87109 21.367-15.551 25.816-28c2.1953-5.375 3.375-11.113 3.4805-16.922 17.289 8.6602 32.512 20.938 44.637 36-14.16-61.559-75.121-82.68-75.238-82.68-12.043-4.9883-25.594-4.8672-37.543 0.33984-11.953 5.2031-21.27 15.047-25.816 27.262z"/>
 <path d="m650.88 641.28c-9.7734-14.426-26.504-22.543-43.883-21.293-17.383 1.2539-32.773 11.684-40.379 27.363-7.6094 15.676-6.2734 34.223 3.5039 48.648 3.2539 4.6797 7.3164 8.7461 12 12-16.887 9.4961-35.645 15.188-54.961 16.68 58.922 22.801 110.52-15.961 110.64-16.078 10.613-7.2344 17.941-18.363 20.391-30.969 2.4492-12.609-0.17969-25.672-7.3125-36.352z"/>
 <path d="m490.8 568.08c1.6289 12.816 8.2812 24.461 18.492 32.371 10.211 7.9141 23.148 11.445 35.965 9.8203 12.816-1.6211 24.461-8.2695 32.375-18.48 7.918-10.207 11.453-23.145 9.8359-35.961-1.6211-12.816-8.2656-24.465-18.473-32.383-10.207-7.918-23.141-11.461-35.957-9.8438-5.75 0.69141-11.324 2.4414-16.438 5.1602-0.82812-19.34 2.5703-38.629 9.957-56.523-46.559 41.762-35.758 105.72-35.758 105.84z"/>
 <path d="m848.64 780c-19.441-2.6406-30.961 7.0781-34.441-9.2383-3.4805-16.32-23.039-41.52 0-52.559 23.039-11.039 30.84-12.84 24.719-18.602-6.1211-5.7617-29.16 11.039-26.52 3.1211 2.6406-7.9219 25.199-24.719 25.199-36l0.003906-0.003906c1.5273-8.5273-0.75391-17.297-6.2422-24-5.7617-6.6016-27.602-24-26.879-15 0.48047 8.7344 1.4844 17.43 3 26.043 1.8008 5.7617-10.078 16.801-13.199 25.199-3.1211 8.3984-33.121 60-39.359 63.961s-14.52 1.3203-24.719 12-7.0781 15-18.121 20.762c-11.039 5.7617-19.801 0-32.641 10.199-12.84 10.199-27.359 24-37.559 19.801-10.199-4.1992-34.801-18.48-42.84-15.48-8.0391 3-12 4.4414 2.2812 8.8789 14.281 4.4414 36 12 29.16 32.281s-20.398 45.48-12 53.879c8.3984 8.3984 30.48 22.078 37.559 12 7.0781-10.078 0-3.1211-4.4414-22.922-4.4414-19.801-14.039-42.48 7.5586-53.879 21.602-11.398 34.922 7.0781 48-10.68 13.078-17.762 15.48-2.6406 30.961-19.801 15.48-17.16 15.48-37.078 32.641-38.039 17.16-0.96094 16.32 1.3203 24 20.762 7.6797 19.441 27.359 38.398 43.68 27.359 16.32-11.043 29.637-18.004 10.199-20.043z"/>
 <path d="m802.56 475.44c-13.199-4.4414-27.359-34.801-21.84-38.281 5.5195-3.4805 25.922 7.6797 26.879 0h0.003906c2.1523-15.918 7.2383-31.297 15-45.359 7.3203-8.7617 4.4414-16.199 1.3203-16.441-3.1211-0.23828-22.199 25.32-24 16.199s-6.9609-7.6797-9.9609-3.2383c-3 4.4414 4.6797 30.602 3 37.68-1.6797 7.0781-36-20.641-43.922-24-7.9219-3.3594-6.2383-24-3.8398-28.559 2.3984-4.5586 36-14.398 40.68-22.078 4.6797-7.6797-38.879 12.961-45.359 15.602s-22.441-7.3203-25.922-16.199c-3.4805-8.8789-5.6406-21.719-9.1211-14.16-3.4805 7.5586 4.4414 22.441 8.5195 28.32l0.003906-0.003906c2.2578 4.0859 2.6406 8.9453 1.0547 13.336-1.5859 4.3906-4.9883 7.8828-9.3359 9.582-10.559 3.6016-7.0781 12 3 15.359 10.082 3.3594 42.602 30.723 47.281 33.602 4.6797 2.8789-7.5586 4.1992-7.5586 11.281 0 7.0781 15.238 6.4805 24 13.559 8.7617 7.0781 29.641 39.961 25.801 45.84-3.8398 5.8789-7.9219-9.9609-20.281-7.6797-12.359 2.2812 0 14.16 3.4805 17.16 15.797 3.7188 29.277 13.969 37.078 28.199 12 24-1.6797 48 0 58.922 2.1602 12 19.801 0 26.879-7.0781 7.0781-7.0781 6.4805-20.641 0-36-6.4805-15.359-12-24.719-17.398-41.52s8.8789-20.039 18.602-9.9609c9.7188 10.078 18.602 4.0781 17.398-6.2383-1.1992-10.324-48-23.285-61.441-27.844z"/>
 <path d="m366 444.84c13.199-7.0781 38.879-7.4414 39.719 0 4.0547 11.449 8.8242 22.629 14.281 33.48 3.4805 10.078-12.719 25.32-8.8789 30.359 3.8398 5.0391 2.2812 24.719 10.199 7.9219 7.9219-16.801 4.8008-33.238 7.9219-50.762 3.1211-17.52 14.16-4.4414 27.84-10.199 13.68-5.7617 7.9219-4.3203 24-16.68 16.078-12.359 34.922-27 38.039-34.922 3.1211-7.9219-7.5586-20.762 9.7188-16.32 17.281 4.4414 41.52 18.48 54.719 4.4414 13.199-14.039 35.281-19.441 45.48-10.199 10.199 9.2383 25.199 30.961 26.039 20.281 0.83984-10.68-14.16-17.641-8.8789-19.441s24-3 19.441-12-7.4414-3.4805-19.441-5.2812-29.52-16.922-28.199-31.199c1.3203-14.281 10.559-41.281 2.1602-32.879-10.453 10.613-15.488 25.414-13.68 40.199 3.6016 13.68 9.7188 20.762-7.0781 21.238-16.801 0.48047-10.559 12.719-28.199 15.84s-58.32-12-54.359-24.719 8.8789-21.238 3.6016-24c-5.2812-2.7617-12 2.6406-13.68 16.32-1.6797 13.68 8.7617 46.801 0.83984 51.719-7.9219 4.9219-9.8398-1.3203-19.559 10.078-9.7188 11.398-16.199 28.559-27.359 25.078-11.16-3.4805-21.48-17.039-18.602-24 2.8789-6.9609-20.281 7.0781-25.32 14.398s-10.32-8.5195-17.641-1.4414-29.398 10.801-28.559 0.60156c0.83984-10.199-15.602 5.8789-18.84 17.879-3.2461 12.008 0.95313 11.289 14.273 4.207z"/>
 <path d="m520.8 787.2c-11.039 6.4805-30.238 4.0781-34.68-7.6797-4.4414-11.762-12-36-20.641-45.961-8.6406-9.9609-20.281-52.922-32.039-48-11.762 4.9219-3.6016 22.68-11.281 18.238-7.6797-4.4414-20.52-42.719-15.238-54.719s2.6406-46.559-3.8398-50.398c-6.4805-3.8398-19.199-6.6016-17.52-13.199 1.6797-6.6016 16.801-10.801 20.398-16.199 3.6016-5.3984 5.8789-46.078-4.6797-30.48-12 18-28.199 45-20.762 56.039 7.4414 11.039 14.16 12 9.4805 23.398-4.6797 11.398-12 25.559-4.6797 36 5.4375 8.9062 7.75 19.367 6.5781 29.734-1.1719 10.363-5.7695 20.043-13.059 27.508-20.398 20.762-35.398 24.719-27 29.641 8.3984 4.9219-20.762 41.52-14.52 42.84 6.2383 1.3203 30.84-30.121 40.078-45.961 9.2383-15.84 23.398-40.441 31.801-27.48 8.3984 12.961 8.8789 15.602 15.121 8.5195 6.2383-7.0781 31.68 36.961 39.238 43.441s6.2383 34.559 14.16 33.719c7.9219-0.83984 26.879 48 34.801 37.441s-13.68-18.48-4.3203-22.922 21.602-19.801 33.48-13.199c11.879 6.6016 12.961 6.2383 10.32 1.1992s-20.16-18-31.199-11.52z"/>
</svg>
